<svg version="1.1" id="Layer_1" xmlns="http://www.w3.org/2000/svg" xmlns:xlink="http://www.w3.org/1999/xlink" x="0px" y="0px"
	 width="100%" viewBox="0 0 500 500" enable-background="new 0 0 500 500" xml:space="preserve">
<path fill="#ffffffff" opacity="1.000000" stroke="none" 
	d="
M276.000000,501.000000 
	C184.000015,501.000000 92.500046,501.000000 1.000049,501.000000 
	C1.000033,334.333405 1.000033,167.666794 1.000016,1.000139 
	C167.666565,1.000092 334.333130,1.000092 500.999756,1.000046 
	C500.999847,167.666519 500.999847,334.333038 500.999939,500.999786 
	C426.166656,501.000000 351.333344,501.000000 276.000000,501.000000 
M260.766449,391.291809 
	C226.484344,412.068542 189.318420,418.516663 148.833405,413.244659 
	C185.386078,452.335266 229.133804,467.600952 280.488525,456.542267 
	C333.506927,445.125366 374.579498,401.130432 382.803680,348.752899 
	C390.511200,299.665741 375.040466,258.539185 338.323944,224.184998 
	C345.399597,295.680725 321.260071,351.606262 260.766449,391.291809 
M197.474136,331.081360 
	C132.691742,309.689026 75.942963,240.722992 88.442001,150.219238 
	C56.284939,175.765244 32.847763,226.233398 45.268444,281.044617 
	C58.273186,338.433228 108.736534,380.155090 165.794724,384.749390 
	C205.248749,387.926239 265.031372,363.466034 276.461121,338.360321 
	C249.880417,341.906036 223.747833,340.064545 197.474136,331.081360 
M117.925140,160.476288 
	C113.344429,206.977158 129.183121,245.452103 163.817123,277.684814 
	C156.733246,222.203720 170.795471,174.279907 209.826309,135.189194 
	C248.792282,96.163452 296.543304,81.692787 350.984222,88.500847 
	C330.043793,59.761002 281.856415,35.457344 230.816788,43.190086 
	C171.482941,52.179447 125.241768,99.977211 117.925140,160.476288 
M435.498627,174.016342 
	C375.414886,92.405128 270.090332,107.143478 225.464310,163.465439 
	C279.860962,156.744736 327.738953,170.995102 366.782318,210.127106 
	C405.826019,249.259460 420.037140,297.266205 413.170044,352.237061 
	C463.703369,308.998322 475.662903,232.834366 435.498627,174.016342 
z"/>
<path fill="#ff0000ff" opacity="1.000000" stroke="none" 
	d="
M261.091888,391.127258 
	C321.260071,351.606262 345.399597,295.680725 338.323944,224.184998 
	C375.040466,258.539185 390.511200,299.665741 382.803680,348.752899 
	C374.579498,401.130432 333.506927,445.125366 280.488525,456.542267 
	C229.133804,467.600952 185.386078,452.335266 148.833405,413.244659 
	C189.318420,418.516663 226.484344,412.068542 261.091888,391.127258 
z"/>
<path fill="#ff0000ff" opacity="1.000000" stroke="none" 
	d="
M197.850098,331.208954 
	C223.747833,340.064545 249.880417,341.906036 276.461121,338.360321 
	C265.031372,363.466034 205.248749,387.926239 165.794724,384.749390 
	C108.736534,380.155090 58.273186,338.433228 45.268444,281.044617 
	C32.847763,226.233398 56.284939,175.765244 88.442001,150.219238 
	C75.942963,240.722992 132.691742,309.689026 197.850098,331.208954 
z"/>
<path fill="#ff0000ff" opacity="1.000000" stroke="none" 
	d="
M117.959267,160.029419 
	C125.241768,99.977211 171.482941,52.179447 230.816788,43.190086 
	C281.856415,35.457344 330.043793,59.761002 350.984222,88.500847 
	C296.543304,81.692787 248.792282,96.163452 209.826309,135.189194 
	C170.795471,174.279907 156.733246,222.203720 163.817123,277.684814 
	C129.183121,245.452103 113.344429,206.977158 117.959267,160.029419 
z"/>
<path fill="#ff0000ff" opacity="1.000000" stroke="none" 
	d="
M435.713501,174.305038 
	C475.662903,232.834366 463.703369,308.998322 413.170044,352.237061 
	C420.037140,297.266205 405.826019,249.259460 366.782318,210.127106 
	C327.738953,170.995102 279.860962,156.744736 225.464310,163.465439 
	C270.090332,107.143478 375.414886,92.405128 435.713501,174.305038 
z"/>
</svg>